<?xml version="1.0" encoding="utf-8" ?>
<svg baseProfile="tiny" height="312.5px" version="1.2" width="2029px" xmlns="http://www.w3.org/2000/svg" xmlns:ev="http://www.w3.org/2001/xml-events" xmlns:xlink="http://www.w3.org/1999/xlink"><defs /><rect fill="#FFC53A" height="25" width="25" x="0" y="31.25" /><rect fill="#FFC53A" height="25" width="25" x="31.25" y="31.25" /><rect fill="#FFC53A" height="25" width="25" x="62.5" y="31.25" /><rect fill="#FFC53A" height="25" width="25" x="0" y="62.5" /><rect fill="#FFC53A" height="25" width="25" x="31.25" y="62.5" /><rect fill="#FFC53A" height="25" width="25" x="62.5" y="62.5" /><rect fill="#FFC53A" height="25" width="25" x="93.75" y="62.5" /><rect fill="#FFC53A" height="25" width="25" x="125.0" y="62.5" /><rect fill="#FFC53A" height="25" width="25" x="0" y="93.75" /><rect fill="#FFC53A" height="25" width="25" x="31.25" y="93.75" /><rect fill="#FFC53A" height="25" width="25" x="62.5" y="93.75" /><rect fill="#FFC53A" height="25" width="25" x="0" y="125.0" /><rect fill="#FFC53A" height="25" width="25" x="31.25" y="125.0" /><rect fill="#FFC53A" height="25" width="25" x="62.5" y="125.0" /><rect fill="#FFC53A" height="25" width="25" x="0" y="156.25" /><rect fill="#FFC53A" height="25" width="25" x="31.25" y="156.25" /><rect fill="#084B83" height="25" width="25" x="250.0" y="62.5" /><rect fill="#084B83" height="25" width="25" x="250.0" y="93.75" /><rect fill="#93A8AC" height="25" width="25" x="406.25" y="31.25" /><rect fill="#93A8AC" height="25" width="25" x="437.5" y="31.25" /><rect fill="#93A8AC" height="25" width="25" x="468.75" y="31.25" /><rect fill="#93A8AC" height="25" width="25" x="406.25" y="62.5" /><rect fill="#93A8AC" height="25" width="25" x="406.25" y="125.0" /><rect fill="#21FA90" height="25" width="25" x="562.5" y="31.25" /><rect fill="#21FA90" height="25" width="25" x="593.75" y="31.25" /><rect fill="#21FA90" height="25" width="25" x="625.0" y="31.25" /><rect fill="#21FA90" height="25" width="25" x="562.5" y="62.5" /><rect fill="#21FA90" height="25" width="25" x="562.5" y="156.25" /><rect fill="#DE3C4B" height="25" width="25" x="812.5" y="31.25" /><rect fill="#DE3C4B" height="25" width="25" x="843.75" y="31.25" /><rect fill="#DE3C4B" height="25" width="25" x="812.5" y="93.75" /><rect fill="#230903" height="25" width="25" x="1031.25" y="62.5" /><rect fill="#230903" height="25" width="25" x="1031.25" y="93.75" /><rect fill="#230903" height="25" width="25" x="1031.25" y="156.25" /><rect fill="#AD9F71" height="25" width="25" x="1187.5" y="31.25" /><rect fill="#AD9F71" height="25" width="25" x="1218.75" y="31.25" /><rect fill="#AD9F71" height="25" width="25" x="1187.5" y="62.5" /></svg>