<?xml version="1.0" encoding="utf-8" ?>
<svg baseProfile="tiny" height="312.5px" version="1.2" width="2029px" xmlns="http://www.w3.org/2000/svg" xmlns:ev="http://www.w3.org/2001/xml-events" xmlns:xlink="http://www.w3.org/1999/xlink"><defs /><rect fill="#FFC53A" height="25" width="25" x="0" y="31.25" /><rect fill="#FFC53A" height="25" width="25" x="31.25" y="31.25" /><rect fill="#FFC53A" height="25" width="25" x="0" y="93.75" /><rect fill="#FFC53A" height="25" width="25" x="31.25" y="93.75" /><rect fill="#FFC53A" height="25" width="25" x="62.5" y="93.75" /><rect fill="#FFC53A" height="25" width="25" x="0" y="125.0" /><rect fill="#FFC53A" height="25" width="25" x="0" y="187.5" /><rect fill="#084B83" height="25" width="25" x="250.0" y="0" /><rect fill="#084B83" height="25" width="25" x="250.0" y="31.25" /><rect fill="#084B83" height="25" width="25" x="281.25" y="31.25" /><rect fill="#084B83" height="25" width="25" x="250.0" y="62.5" /><rect fill="#084B83" height="25" width="25" x="281.25" y="62.5" /><rect fill="#084B83" height="25" width="25" x="312.5" y="62.5" /><rect fill="#084B83" height="25" width="25" x="250.0" y="93.75" /><rect fill="#084B83" height="25" width="25" x="281.25" y="93.75" /><rect fill="#084B83" height="25" width="25" x="250.0" y="125.0" /><rect fill="#084B83" height="25" width="25" x="250.0" y="156.25" /><rect fill="#084B83" height="25" width="25" x="281.25" y="156.25" /><rect fill="#084B83" height="25" width="25" x="312.5" y="156.25" /><rect fill="#084B83" height="25" width="25" x="250.0" y="218.75" /><rect fill="#084B83" height="25" width="25" x="281.25" y="218.75" /><rect fill="#084B83" height="25" width="25" x="312.5" y="218.75" /><rect fill="#084B83" height="25" width="25" x="250.0" y="250.0" /><rect fill="#084B83" height="25" width="25" x="281.25" y="250.0" /><rect fill="#084B83" height="25" width="25" x="250.0" y="281.25" /><rect fill="#084B83" height="25" width="25" x="281.25" y="281.25" /><rect fill="#93A8AC" height="25" width="25" x="406.25" y="0" /><rect fill="#93A8AC" height="25" width="25" x="406.25" y="31.25" /><rect fill="#93A8AC" height="25" width="25" x="437.5" y="31.25" /><rect fill="#93A8AC" height="25" width="25" x="406.25" y="62.5" /><rect fill="#93A8AC" height="25" width="25" x="437.5" y="62.5" /><rect fill="#93A8AC" height="25" width="25" x="406.25" y="93.75" /><rect fill="#93A8AC" height="25" width="25" x="437.5" y="93.75" /><rect fill="#93A8AC" height="25" width="25" x="406.25" y="187.5" /><rect fill="#21FA90" height="25" width="25" x="562.5" y="31.25" /><rect fill="#21FA90" height="25" width="25" x="593.75" y="31.25" /><rect fill="#21FA90" height="25" width="25" x="562.5" y="62.5" /><rect fill="#21FA90" height="25" width="25" x="593.75" y="62.5" /><rect fill="#21FA90" height="25" width="25" x="562.5" y="125.0" /><rect fill="#21FA90" height="25" width="25" x="593.75" y="125.0" /><rect fill="#21FA90" height="25" width="25" x="625.0" y="125.0" /><rect fill="#21FA90" height="25" width="25" x="562.5" y="156.25" /><rect fill="#21FA90" height="25" width="25" x="593.75" y="156.25" /><rect fill="#21FA90" height="25" width="25" x="562.5" y="187.5" /><rect fill="#21FA90" height="25" width="25" x="562.5" y="250.0" /><rect fill="#21FA90" height="25" width="25" x="593.75" y="250.0" /><rect fill="#21FA90" height="25" width="25" x="562.5" y="281.25" /><rect fill="#DE3C4B" height="25" width="25" x="812.5" y="0" /><rect fill="#DE3C4B" height="25" width="25" x="843.75" y="0" /><rect fill="#DE3C4B" height="25" width="25" x="875.0" y="0" /><rect fill="#DE3C4B" height="25" width="25" x="906.25" y="0" /><rect fill="#DE3C4B" height="25" width="25" x="937.5" y="0" /><rect fill="#DE3C4B" height="25" width="25" x="968.75" y="0" /><rect fill="#DE3C4B" height="25" width="25" x="812.5" y="31.25" /><rect fill="#DE3C4B" height="25" width="25" x="843.75" y="31.25" /><rect fill="#DE3C4B" height="25" width="25" x="875.0" y="31.25" /><rect fill="#DE3C4B" height="25" width="25" x="906.25" y="31.25" /><rect fill="#DE3C4B" height="25" width="25" x="812.5" y="62.5" /><rect fill="#DE3C4B" height="25" width="25" x="843.75" y="62.5" /><rect fill="#DE3C4B" height="25" width="25" x="875.0" y="62.5" /><rect fill="#DE3C4B" height="25" width="25" x="906.25" y="62.5" /><rect fill="#DE3C4B" height="25" width="25" x="937.5" y="62.5" /><rect fill="#DE3C4B" height="25" width="25" x="812.5" y="93.75" /><rect fill="#DE3C4B" height="25" width="25" x="843.75" y="93.75" /><rect fill="#DE3C4B" height="25" width="25" x="875.0" y="93.75" /><rect fill="#DE3C4B" height="25" width="25" x="812.5" y="125.0" /><rect fill="#DE3C4B" height="25" width="25" x="843.75" y="125.0" /><rect fill="#DE3C4B" height="25" width="25" x="875.0" y="125.0" /><rect fill="#DE3C4B" height="25" width="25" x="812.5" y="156.25" /><rect fill="#DE3C4B" height="25" width="25" x="843.75" y="156.25" /><rect fill="#DE3C4B" height="25" width="25" x="812.5" y="187.5" /><rect fill="#DE3C4B" height="25" width="25" x="843.75" y="187.5" /><rect fill="#DE3C4B" height="25" width="25" x="812.5" y="218.75" /><rect fill="#DE3C4B" height="25" width="25" x="843.75" y="218.75" /><rect fill="#DE3C4B" height="25" width="25" x="875.0" y="218.75" /><rect fill="#DE3C4B" height="25" width="25" x="812.5" y="250.0" /><rect fill="#DE3C4B" height="25" width="25" x="812.5" y="281.25" /><rect fill="#AA7DCE" height="25" width="25" x="1031.25" y="0" /><rect fill="#AA7DCE" height="25" width="25" x="1062.5" y="0" /><rect fill="#AA7DCE" height="25" width="25" x="1031.25" y="31.25" /><rect fill="#AA7DCE" height="25" width="25" x="1062.5" y="31.25" /><rect fill="#AA7DCE" height="25" width="25" x="1093.75" y="31.25" /><rect fill="#AA7DCE" height="25" width="25" x="1031.25" y="62.5" /><rect fill="#AA7DCE" height="25" width="25" x="1062.5" y="62.5" /><rect fill="#AA7DCE" height="25" width="25" x="1093.75" y="62.5" /><rect fill="#AA7DCE" height="25" width="25" x="1031.25" y="93.75" /><rect fill="#AA7DCE" height="25" width="25" x="1062.5" y="93.75" /><rect fill="#AA7DCE" height="25" width="25" x="1093.75" y="93.75" /><rect fill="#AA7DCE" height="25" width="25" x="1031.25" y="125.0" /><rect fill="#AA7DCE" height="25" width="25" x="1031.25" y="156.25" /><rect fill="#AA7DCE" height="25" width="25" x="1062.5" y="156.25" /><rect fill="#230903" height="25" width="25" x="1187.5" y="0" /><rect fill="#230903" height="25" width="25" x="1218.75" y="0" /><rect fill="#230903" height="25" width="25" x="1187.5" y="31.25" /><rect fill="#230903" height="25" width="25" x="1218.75" y="31.25" /><rect fill="#230903" height="25" width="25" x="1187.5" y="93.75" /><rect fill="#230903" height="25" width="25" x="1187.5" y="125.0" /><rect fill="#230903" height="25" width="25" x="1187.5" y="187.5" /><rect fill="#230903" height="25" width="25" x="1218.75" y="187.5" /><rect fill="#230903" height="25" width="25" x="1187.5" y="218.75" /><rect fill="#AD9F71" height="25" width="25" x="1343.75" y="0" /><rect fill="#AD9F71" height="25" width="25" x="1375.0" y="0" /><rect fill="#AD9F71" height="25" width="25" x="1406.25" y="0" /><rect fill="#AD9F71" height="25" width="25" x="1343.75" y="31.25" /><rect fill="#AD9F71" height="25" width="25" x="1375.0" y="31.25" /><rect fill="#AD9F71" height="25" width="25" x="1406.25" y="31.25" /><rect fill="#AD9F71" height="25" width="25" x="1343.75" y="62.5" /><rect fill="#AD9F71" height="25" width="25" x="1375.0" y="62.5" /><rect fill="#AD9F71" height="25" width="25" x="1406.25" y="62.5" /><rect fill="#AD9F71" height="25" width="25" x="1437.5" y="62.5" /><rect fill="#AD9F71" height="25" width="25" x="1468.75" y="62.5" /><rect fill="#AD9F71" height="25" width="25" x="1500.0" y="62.5" /><rect fill="#AD9F71" height="25" width="25" x="1531.25" y="62.5" /><rect fill="#AD9F71" height="25" width="25" x="1562.5" y="62.5" /><rect fill="#AD9F71" height="25" width="25" x="1593.75" y="62.5" /><rect fill="#AD9F71" height="25" width="25" x="1625.0" y="62.5" /><rect fill="#AD9F71" height="25" width="25" x="1343.75" y="93.75" /><rect fill="#AD9F71" height="25" width="25" x="1375.0" y="93.75" /><rect fill="#AD9F71" height="25" width="25" x="1406.25" y="93.75" /><rect fill="#AD9F71" height="25" width="25" x="1437.5" y="93.75" /><rect fill="#AD9F71" height="25" width="25" x="1468.75" y="93.75" /><rect fill="#AD9F71" height="25" width="25" x="1500.0" y="93.75" /><rect fill="#AD9F71" height="25" width="25" x="1531.25" y="93.75" /><rect fill="#AD9F71" height="25" width="25" x="1343.75" y="125.0" /><rect fill="#AD9F71" height="25" width="25" x="1375.0" y="125.0" /><rect fill="#AD9F71" height="25" width="25" x="1343.75" y="156.25" /><rect fill="#AD9F71" height="25" width="25" x="1375.0" y="156.25" /><rect fill="#AD9F71" height="25" width="25" x="1343.75" y="187.5" /><rect fill="#AD9F71" height="25" width="25" x="1375.0" y="187.5" /><rect fill="#AD9F71" height="25" width="25" x="1406.25" y="187.5" /><rect fill="#AD9F71" height="25" width="25" x="1343.75" y="218.75" /><rect fill="#AD9F71" height="25" width="25" x="1343.75" y="250.0" /><rect fill="#AD9F71" height="25" width="25" x="1343.75" y="281.25" /></svg>